<?xml version="1.0" encoding="UTF-8" standalone="no"?>
<!-- Svg Vector Icons : http://www.onlinewebfonts.com/icon -->

<svg
   version="1.1"
   x="0px"
   y="0px"
   viewBox="0 0 873.69098 813.51996"
   enable-background="new 0 0 1000 1000"
   xml:space="preserve"
   id="svg1785"
   sodipodi:docname="eraser.svg"
   width="873.69098"
   height="813.51996"
   inkscape:version="1.2.2 (b0a8486, 2022-12-01)"
   xmlns:inkscape="http://www.inkscape.org/namespaces/inkscape"
   xmlns:sodipodi="http://sodipodi.sourceforge.net/DTD/sodipodi-0.dtd"
   xmlns="http://www.w3.org/2000/svg"
   xmlns:svg="http://www.w3.org/2000/svg"><defs
   id="defs1789" /><sodipodi:namedview
   id="namedview1787"
   pagecolor="#ffffff"
   bordercolor="#000000"
   borderopacity="0.25"
   inkscape:showpageshadow="2"
   inkscape:pageopacity="0.0"
   inkscape:pagecheckerboard="0"
   inkscape:deskcolor="#d1d1d1"
   showgrid="false"
   inkscape:zoom="0.374"
   inkscape:cx="286.09626"
   inkscape:cy="245.9893"
   inkscape:window-width="1920"
   inkscape:window-height="951"
   inkscape:window-x="1280"
   inkscape:window-y="32"
   inkscape:window-maximized="1"
   inkscape:current-layer="g1783" />
<metadata
   id="metadata1775"> Svg Vector Icons : http://www.onlinewebfonts.com/icon </metadata>
<g
   id="g1783"
   transform="translate(-87.3,-154.38004)"><path
     d="m 913.9,933.5 c 0,18.9 -15.5,34.4 -34.4,34.4 H 121.7 c -18.9,0 -34.4,-15.5 -34.4,-34.4 v 0 c 0,-18.9 15.5,-34.4 34.4,-34.4 h 757.8 c 18.9,-0.1 34.4,15.4 34.4,34.4 z"
     id="path1777"
     style="fill:#e7cea6;fill-opacity:1" /><path
     d="M 940.891,377.56723 740.01303,174.48004 c -26.8,-26.8 -70.6,-26.8 -97.4,0 l -328.9,328.9 298.27797,300.58719 328.9,-328.9 c 26.8,-26.8 26.8,-70.7 0,-97.5 z"
     id="path1779"
     style="fill:#fc3f29;fill-opacity:1"
     sodipodi:nodetypes="ccsccsc" /><path
     d="m 229.4,899 h 283.3 l 79.5,-79.5 -295.30415,-300.06514 -172.5,172.5 c -26.799998,26.8 -26.211928,70.02456 0,97.4 z"
     id="path1781"
     style="fill:#2a83e9;fill-opacity:1"
     sodipodi:nodetypes="ccccssc" /></g>
</svg>
